<mxfile host="app.diagrams.net" modified="2021-06-26T13:50:51.125Z" agent="5.0 (Windows NT 10.0; Win64; x64) AppleWebKit/537.36 (KHTML, like Gecko) Chrome/91.0.4472.114 Safari/537.36" etag="5qlG47b-8GcLLoTSKVgL" version="14.8.1" type="github">
  <diagram id="C5RBs43oDa-KdzZeNtuy" name="Page-1">
    <mxGraphModel dx="2454" dy="2147" grid="1" gridSize="10" guides="1" tooltips="1" connect="1" arrows="1" fold="1" page="1" pageScale="1" pageWidth="827" pageHeight="1169" math="0" shadow="0">
      <root>
        <mxCell id="WIyWlLk6GJQsqaUBKTNV-0" />
        <mxCell id="WIyWlLk6GJQsqaUBKTNV-1" parent="WIyWlLk6GJQsqaUBKTNV-0" />
        <mxCell id="Ry-8MZ3kQZ3Y5aaG5d4y-0" style="edgeStyle=orthogonalEdgeStyle;rounded=0;orthogonalLoop=1;jettySize=auto;html=1;exitX=0;exitY=0.5;exitDx=0;exitDy=0;entryX=1;entryY=0.5;entryDx=0;entryDy=0;fontFamily=Times New Roman;fontSize=15;fontColor=#000000;endArrow=block;endFill=1;strokeWidth=2;" parent="WIyWlLk6GJQsqaUBKTNV-1" edge="1">
          <mxGeometry x="557" y="-24.5" as="geometry">
            <mxPoint x="772" y="347.75" as="sourcePoint" />
          </mxGeometry>
        </mxCell>
        <mxCell id="Ry-8MZ3kQZ3Y5aaG5d4y-55" value="&lt;font size=&quot;1&quot;&gt;&lt;b style=&quot;font-size: 21px&quot;&gt;Plasma&lt;br&gt;&lt;/b&gt;&lt;/font&gt;" style="rounded=0;whiteSpace=wrap;html=1;fontFamily=Times New Roman;fontSize=20;fontColor=#333333;strokeWidth=1;strokeColor=none;fillColor=#DEDEDE;" parent="WIyWlLk6GJQsqaUBKTNV-1" vertex="1">
          <mxGeometry x="-40" y="-100" width="550" height="50" as="geometry" />
        </mxCell>
        <mxCell id="Ry-8MZ3kQZ3Y5aaG5d4y-63" value="" style="rounded=0;whiteSpace=wrap;html=1;fontFamily=Times New Roman;fontSize=15;fontColor=#000000;strokeColor=#000000;strokeWidth=2;fillColor=none;" parent="WIyWlLk6GJQsqaUBKTNV-1" vertex="1">
          <mxGeometry x="-40" y="-100" width="550" height="860" as="geometry" />
        </mxCell>
        <mxCell id="mLjvoEHw3uMdFO4_nmo_-253" value="Shapiroâ€“Wilk Test" style="rounded=1;whiteSpace=wrap;html=1;fontSize=15;glass=0;strokeWidth=2;shadow=0;fontStyle=0;fontFamily=Times New Roman;fillColor=#f5f5f5;fontColor=#1C1C1C;" parent="WIyWlLk6GJQsqaUBKTNV-1" vertex="1">
          <mxGeometry x="150" y="33" width="160" height="40" as="geometry" />
        </mxCell>
        <mxCell id="mLjvoEHw3uMdFO4_nmo_-255" value="&lt;font style=&quot;font-size: 13px&quot;&gt;Normally Distributed?&lt;/font&gt;" style="rhombus;whiteSpace=wrap;html=1;shadow=0;fontFamily=Times New Roman;fontSize=15;align=center;strokeWidth=2;spacing=6;spacingTop=-4;fontStyle=0;fillColor=#f8cecc;" parent="WIyWlLk6GJQsqaUBKTNV-1" vertex="1">
          <mxGeometry x="180" y="103" width="100" height="80" as="geometry" />
        </mxCell>
        <mxCell id="Ry-8MZ3kQZ3Y5aaG5d4y-53" style="edgeStyle=orthogonalEdgeStyle;rounded=0;orthogonalLoop=1;jettySize=auto;html=1;exitX=0.5;exitY=1;exitDx=0;exitDy=0;entryX=0.5;entryY=0;entryDx=0;entryDy=0;fontFamily=Times New Roman;fontSize=15;fontColor=#000000;endArrow=block;endFill=1;strokeWidth=2;" parent="WIyWlLk6GJQsqaUBKTNV-1" source="mLjvoEHw3uMdFO4_nmo_-253" target="mLjvoEHw3uMdFO4_nmo_-255" edge="1">
          <mxGeometry x="-40" y="-100" as="geometry" />
        </mxCell>
        <mxCell id="mLjvoEHw3uMdFO4_nmo_-257" value="&lt;span style=&quot;font-size: 15px;&quot;&gt;Levene&#39;s Test&lt;/span&gt;" style="rounded=1;whiteSpace=wrap;html=1;fontSize=15;glass=0;strokeWidth=2;shadow=0;fontStyle=0;fontFamily=Times New Roman;fillColor=#fff2cc;" parent="WIyWlLk6GJQsqaUBKTNV-1" vertex="1">
          <mxGeometry x="330" y="123" width="120" height="40" as="geometry" />
        </mxCell>
        <mxCell id="Ry-8MZ3kQZ3Y5aaG5d4y-18" style="edgeStyle=orthogonalEdgeStyle;rounded=0;orthogonalLoop=1;jettySize=auto;html=1;exitX=1;exitY=0.5;exitDx=0;exitDy=0;entryX=0;entryY=0.5;entryDx=0;entryDy=0;fontFamily=Times New Roman;fontSize=15;fontColor=#000000;endArrow=block;endFill=1;strokeWidth=2;" parent="WIyWlLk6GJQsqaUBKTNV-1" source="mLjvoEHw3uMdFO4_nmo_-255" target="mLjvoEHw3uMdFO4_nmo_-257" edge="1">
          <mxGeometry x="-40" y="-100" as="geometry" />
        </mxCell>
        <mxCell id="Ry-8MZ3kQZ3Y5aaG5d4y-52" style="edgeStyle=orthogonalEdgeStyle;rounded=0;orthogonalLoop=1;jettySize=auto;html=1;exitX=0.5;exitY=1;exitDx=0;exitDy=0;entryX=0.5;entryY=0;entryDx=0;entryDy=0;fontFamily=Times New Roman;fontSize=15;fontColor=#000000;endArrow=block;endFill=1;strokeWidth=2;" parent="WIyWlLk6GJQsqaUBKTNV-1" target="mLjvoEHw3uMdFO4_nmo_-253" edge="1">
          <mxGeometry x="-40" y="-100" as="geometry">
            <mxPoint x="230" y="7" as="sourcePoint" />
          </mxGeometry>
        </mxCell>
        <mxCell id="mLjvoEHw3uMdFO4_nmo_-261" value="&lt;span style=&quot;font-size: 15px;&quot;&gt;Bartlett&#39;s Test&lt;/span&gt;" style="rounded=1;whiteSpace=wrap;html=1;fontSize=15;glass=0;strokeWidth=2;shadow=0;fontStyle=0;fontFamily=Times New Roman;fillColor=#fff2cc;" parent="WIyWlLk6GJQsqaUBKTNV-1" vertex="1">
          <mxGeometry x="10" y="123" width="120" height="40" as="geometry" />
        </mxCell>
        <mxCell id="Ry-8MZ3kQZ3Y5aaG5d4y-17" style="edgeStyle=orthogonalEdgeStyle;rounded=0;orthogonalLoop=1;jettySize=auto;html=1;exitX=0;exitY=0.5;exitDx=0;exitDy=0;entryX=1;entryY=0.5;entryDx=0;entryDy=0;fontFamily=Times New Roman;fontSize=15;fontColor=#000000;endArrow=block;endFill=1;strokeWidth=2;" parent="WIyWlLk6GJQsqaUBKTNV-1" source="mLjvoEHw3uMdFO4_nmo_-255" target="mLjvoEHw3uMdFO4_nmo_-261" edge="1">
          <mxGeometry x="-40" y="-100" as="geometry" />
        </mxCell>
        <mxCell id="mLjvoEHw3uMdFO4_nmo_-262" value="Equal Variances?" style="rhombus;whiteSpace=wrap;html=1;shadow=0;fontFamily=Times New Roman;fontSize=15;align=center;strokeWidth=2;spacing=6;spacingTop=-4;fontStyle=0;fillColor=#f8cecc;" parent="WIyWlLk6GJQsqaUBKTNV-1" vertex="1">
          <mxGeometry x="180" y="269" width="100" height="80" as="geometry" />
        </mxCell>
        <mxCell id="mLjvoEHw3uMdFO4_nmo_-265" value="&lt;span style=&quot;font-size: 15px;&quot;&gt;Kruskal Wallis Test&lt;/span&gt;" style="rounded=1;whiteSpace=wrap;html=1;fontSize=15;glass=0;strokeWidth=2;shadow=0;fontStyle=0;fontFamily=Times New Roman;fillColor=#dae8fc;" parent="WIyWlLk6GJQsqaUBKTNV-1" vertex="1">
          <mxGeometry x="320" y="289" width="140" height="40" as="geometry" />
        </mxCell>
        <mxCell id="Ry-8MZ3kQZ3Y5aaG5d4y-20" style="edgeStyle=orthogonalEdgeStyle;rounded=0;orthogonalLoop=1;jettySize=auto;html=1;exitX=1;exitY=0.5;exitDx=0;exitDy=0;entryX=0;entryY=0.5;entryDx=0;entryDy=0;fontFamily=Times New Roman;fontSize=15;fontColor=#000000;endArrow=block;endFill=1;strokeWidth=2;" parent="WIyWlLk6GJQsqaUBKTNV-1" source="mLjvoEHw3uMdFO4_nmo_-262" target="mLjvoEHw3uMdFO4_nmo_-265" edge="1">
          <mxGeometry x="-40" y="-100" as="geometry" />
        </mxCell>
        <mxCell id="mLjvoEHw3uMdFO4_nmo_-266" value="&lt;span style=&quot;font-size: 15px;&quot;&gt;Student&#39;s t-Test&lt;/span&gt;" style="rounded=1;whiteSpace=wrap;html=1;fontSize=15;glass=0;strokeWidth=2;shadow=0;fontStyle=0;fontFamily=Times New Roman;fillColor=#dae8fc;" parent="WIyWlLk6GJQsqaUBKTNV-1" vertex="1">
          <mxGeometry x="10" y="289" width="120" height="40" as="geometry" />
        </mxCell>
        <mxCell id="Ry-8MZ3kQZ3Y5aaG5d4y-19" style="edgeStyle=orthogonalEdgeStyle;rounded=0;orthogonalLoop=1;jettySize=auto;html=1;exitX=0;exitY=0.5;exitDx=0;exitDy=0;entryX=1;entryY=0.5;entryDx=0;entryDy=0;fontFamily=Times New Roman;fontSize=15;fontColor=#000000;endArrow=block;endFill=1;strokeWidth=2;" parent="WIyWlLk6GJQsqaUBKTNV-1" source="mLjvoEHw3uMdFO4_nmo_-262" target="mLjvoEHw3uMdFO4_nmo_-266" edge="1">
          <mxGeometry x="-40" y="-100" as="geometry" />
        </mxCell>
        <mxCell id="Ry-8MZ3kQZ3Y5aaG5d4y-51" style="edgeStyle=orthogonalEdgeStyle;rounded=0;orthogonalLoop=1;jettySize=auto;html=1;exitX=0.5;exitY=1;exitDx=0;exitDy=0;entryX=0.5;entryY=0;entryDx=0;entryDy=0;fontFamily=Times New Roman;fontSize=15;fontColor=#000000;endArrow=block;endFill=1;strokeWidth=2;" parent="WIyWlLk6GJQsqaUBKTNV-1" source="mLjvoEHw3uMdFO4_nmo_-267" target="mLjvoEHw3uMdFO4_nmo_-262" edge="1">
          <mxGeometry x="-40" y="-100" as="geometry" />
        </mxCell>
        <mxCell id="mLjvoEHw3uMdFO4_nmo_-267" value="" style="ellipse;whiteSpace=wrap;html=1;aspect=fixed;fontStyle=0;fontFamily=Times New Roman;fontSize=15;strokeWidth=2;" parent="WIyWlLk6GJQsqaUBKTNV-1" vertex="1">
          <mxGeometry x="210" y="204" width="40" height="40" as="geometry" />
        </mxCell>
        <mxCell id="Ry-8MZ3kQZ3Y5aaG5d4y-27" style="edgeStyle=orthogonalEdgeStyle;rounded=0;orthogonalLoop=1;jettySize=auto;html=1;exitX=0.5;exitY=1;exitDx=0;exitDy=0;entryX=1;entryY=0.5;entryDx=0;entryDy=0;fontFamily=Times New Roman;fontSize=15;fontColor=#000000;endArrow=block;endFill=1;strokeWidth=2;" parent="WIyWlLk6GJQsqaUBKTNV-1" source="mLjvoEHw3uMdFO4_nmo_-257" target="mLjvoEHw3uMdFO4_nmo_-267" edge="1">
          <mxGeometry x="-40" y="-100" as="geometry" />
        </mxCell>
        <mxCell id="Ry-8MZ3kQZ3Y5aaG5d4y-26" style="edgeStyle=orthogonalEdgeStyle;rounded=0;orthogonalLoop=1;jettySize=auto;html=1;exitX=0.5;exitY=1;exitDx=0;exitDy=0;entryX=0;entryY=0.5;entryDx=0;entryDy=0;fontFamily=Times New Roman;fontSize=15;fontColor=#000000;endArrow=block;endFill=1;strokeWidth=2;" parent="WIyWlLk6GJQsqaUBKTNV-1" source="mLjvoEHw3uMdFO4_nmo_-261" target="mLjvoEHw3uMdFO4_nmo_-267" edge="1">
          <mxGeometry x="-40" y="-100" as="geometry" />
        </mxCell>
        <mxCell id="mLjvoEHw3uMdFO4_nmo_-270" value="" style="ellipse;whiteSpace=wrap;html=1;aspect=fixed;fontStyle=0;fontFamily=Times New Roman;fontSize=15;strokeWidth=2;" parent="WIyWlLk6GJQsqaUBKTNV-1" vertex="1">
          <mxGeometry x="210" y="360" width="40" height="40" as="geometry" />
        </mxCell>
        <mxCell id="Ry-8MZ3kQZ3Y5aaG5d4y-28" style="edgeStyle=orthogonalEdgeStyle;rounded=0;orthogonalLoop=1;jettySize=auto;html=1;exitX=0.5;exitY=1;exitDx=0;exitDy=0;entryX=1;entryY=0.5;entryDx=0;entryDy=0;fontFamily=Times New Roman;fontSize=15;fontColor=#000000;endArrow=block;endFill=1;strokeWidth=2;" parent="WIyWlLk6GJQsqaUBKTNV-1" source="mLjvoEHw3uMdFO4_nmo_-265" target="mLjvoEHw3uMdFO4_nmo_-270" edge="1">
          <mxGeometry x="-40" y="-100" as="geometry" />
        </mxCell>
        <mxCell id="Ry-8MZ3kQZ3Y5aaG5d4y-29" style="edgeStyle=orthogonalEdgeStyle;rounded=0;orthogonalLoop=1;jettySize=auto;html=1;exitX=0.5;exitY=1;exitDx=0;exitDy=0;entryX=0;entryY=0.5;entryDx=0;entryDy=0;fontFamily=Times New Roman;fontSize=15;fontColor=#000000;endArrow=block;endFill=1;strokeWidth=2;" parent="WIyWlLk6GJQsqaUBKTNV-1" source="mLjvoEHw3uMdFO4_nmo_-266" target="mLjvoEHw3uMdFO4_nmo_-270" edge="1">
          <mxGeometry x="-40" y="-100" as="geometry" />
        </mxCell>
        <mxCell id="Ry-8MZ3kQZ3Y5aaG5d4y-47" style="edgeStyle=orthogonalEdgeStyle;rounded=0;orthogonalLoop=1;jettySize=auto;html=1;exitX=0.5;exitY=1;exitDx=0;exitDy=0;entryX=0.5;entryY=0;entryDx=0;entryDy=0;fontFamily=Times New Roman;fontSize=15;fontColor=#000000;endArrow=block;endFill=1;strokeWidth=2;" parent="WIyWlLk6GJQsqaUBKTNV-1" target="Ry-8MZ3kQZ3Y5aaG5d4y-46" edge="1">
          <mxGeometry x="-40" y="-100" as="geometry">
            <mxPoint x="230" y="508" as="sourcePoint" />
          </mxGeometry>
        </mxCell>
        <mxCell id="mLjvoEHw3uMdFO4_nmo_-275" value="" style="rhombus;whiteSpace=wrap;html=1;shadow=0;fontFamily=Times New Roman;fontSize=15;align=center;strokeWidth=2;spacing=6;spacingTop=-4;fontStyle=0;fillColor=#f8cecc;" parent="WIyWlLk6GJQsqaUBKTNV-1" vertex="1">
          <mxGeometry x="180" y="435" width="100" height="80" as="geometry" />
        </mxCell>
        <mxCell id="Ry-8MZ3kQZ3Y5aaG5d4y-50" style="edgeStyle=orthogonalEdgeStyle;rounded=0;orthogonalLoop=1;jettySize=auto;html=1;exitX=0.5;exitY=1;exitDx=0;exitDy=0;entryX=0.5;entryY=0;entryDx=0;entryDy=0;fontFamily=Times New Roman;fontSize=15;fontColor=#000000;endArrow=block;endFill=1;strokeWidth=2;" parent="WIyWlLk6GJQsqaUBKTNV-1" source="mLjvoEHw3uMdFO4_nmo_-270" target="mLjvoEHw3uMdFO4_nmo_-275" edge="1">
          <mxGeometry x="-40" y="-100" as="geometry" />
        </mxCell>
        <mxCell id="mLjvoEHw3uMdFO4_nmo_-278" value="Less Important Metabolites" style="rounded=1;whiteSpace=wrap;html=1;fontSize=15;glass=0;strokeWidth=2;shadow=0;fontStyle=0;fontFamily=Times New Roman;" parent="WIyWlLk6GJQsqaUBKTNV-1" vertex="1">
          <mxGeometry x="330" y="451" width="130" height="48" as="geometry" />
        </mxCell>
        <mxCell id="Ry-8MZ3kQZ3Y5aaG5d4y-22" style="edgeStyle=orthogonalEdgeStyle;rounded=0;orthogonalLoop=1;jettySize=auto;html=1;exitX=1;exitY=0.5;exitDx=0;exitDy=0;entryX=0;entryY=0.5;entryDx=0;entryDy=0;fontFamily=Times New Roman;fontSize=15;fontColor=#000000;endArrow=block;endFill=1;strokeWidth=2;" parent="WIyWlLk6GJQsqaUBKTNV-1" source="mLjvoEHw3uMdFO4_nmo_-275" target="mLjvoEHw3uMdFO4_nmo_-278" edge="1">
          <mxGeometry x="-40" y="-100" as="geometry" />
        </mxCell>
        <mxCell id="Ry-8MZ3kQZ3Y5aaG5d4y-23" value="Yes" style="text;html=1;strokeColor=none;fillColor=none;align=center;verticalAlign=middle;whiteSpace=wrap;rounded=0;fontFamily=Times New Roman;fontSize=15;fontColor=#000000;strokeWidth=2;" parent="WIyWlLk6GJQsqaUBKTNV-1" vertex="1">
          <mxGeometry x="141" y="119" width="40" height="20" as="geometry" />
        </mxCell>
        <mxCell id="Ry-8MZ3kQZ3Y5aaG5d4y-24" value="No" style="text;html=1;strokeColor=none;fillColor=none;align=center;verticalAlign=middle;whiteSpace=wrap;rounded=0;fontFamily=Times New Roman;fontSize=15;fontColor=#000000;strokeWidth=2;" parent="WIyWlLk6GJQsqaUBKTNV-1" vertex="1">
          <mxGeometry x="280" y="119" width="40" height="20" as="geometry" />
        </mxCell>
        <mxCell id="Ry-8MZ3kQZ3Y5aaG5d4y-38" value="Yes" style="text;html=1;strokeColor=none;fillColor=none;align=center;verticalAlign=middle;whiteSpace=wrap;rounded=0;fontFamily=Times New Roman;fontSize=15;fontColor=#000000;strokeWidth=2;" parent="WIyWlLk6GJQsqaUBKTNV-1" vertex="1">
          <mxGeometry x="139" y="285" width="40" height="20" as="geometry" />
        </mxCell>
        <mxCell id="Ry-8MZ3kQZ3Y5aaG5d4y-39" value="No" style="text;html=1;strokeColor=none;fillColor=none;align=center;verticalAlign=middle;whiteSpace=wrap;rounded=0;fontFamily=Times New Roman;fontSize=15;fontColor=#000000;strokeWidth=2;" parent="WIyWlLk6GJQsqaUBKTNV-1" vertex="1">
          <mxGeometry x="273" y="285" width="40" height="20" as="geometry" />
        </mxCell>
        <mxCell id="Ry-8MZ3kQZ3Y5aaG5d4y-41" value="No" style="text;html=1;strokeColor=none;fillColor=none;align=center;verticalAlign=middle;whiteSpace=wrap;rounded=0;fontFamily=Times New Roman;fontSize=15;fontColor=#000000;strokeWidth=2;" parent="WIyWlLk6GJQsqaUBKTNV-1" vertex="1">
          <mxGeometry x="279" y="452" width="40" height="20" as="geometry" />
        </mxCell>
        <mxCell id="oXN0grTlK2eAXWDE2k6D-16" value="" style="edgeStyle=orthogonalEdgeStyle;rounded=0;orthogonalLoop=1;jettySize=auto;html=1;strokeWidth=2;exitX=0.5;exitY=1;exitDx=0;exitDy=0;" parent="WIyWlLk6GJQsqaUBKTNV-1" target="oXN0grTlK2eAXWDE2k6D-1" edge="1" source="Ry-8MZ3kQZ3Y5aaG5d4y-46">
          <mxGeometry x="-40" y="-100" as="geometry">
            <mxPoint x="165" y="565" as="sourcePoint" />
          </mxGeometry>
        </mxCell>
        <mxCell id="Ry-8MZ3kQZ3Y5aaG5d4y-46" value="Important Metabolites" style="rounded=1;whiteSpace=wrap;html=1;fontSize=15;glass=0;strokeWidth=2;shadow=0;fontStyle=0;fontFamily=Times New Roman;" parent="WIyWlLk6GJQsqaUBKTNV-1" vertex="1">
          <mxGeometry x="165" y="544.5" width="130" height="46" as="geometry" />
        </mxCell>
        <mxCell id="Ry-8MZ3kQZ3Y5aaG5d4y-48" value="Yes" style="text;html=1;strokeColor=none;fillColor=none;align=center;verticalAlign=middle;whiteSpace=wrap;rounded=0;fontFamily=Times New Roman;fontSize=15;fontColor=#000000;strokeWidth=2;" parent="WIyWlLk6GJQsqaUBKTNV-1" vertex="1">
          <mxGeometry x="231" y="514" width="40" height="20" as="geometry" />
        </mxCell>
        <mxCell id="Y5gwh7BrrQ3LUPZN5DZS-0" value="&lt;font face=&quot;Times New Roman&quot;&gt;&lt;span style=&quot;font-size: 15px&quot;&gt;p-value &amp;lt; 0.015?&lt;/span&gt;&lt;/font&gt;" style="text;html=1;strokeColor=none;fillColor=none;align=center;verticalAlign=middle;whiteSpace=wrap;rounded=0;" parent="WIyWlLk6GJQsqaUBKTNV-1" vertex="1">
          <mxGeometry x="195" y="456" width="70" height="40" as="geometry" />
        </mxCell>
        <mxCell id="oXN0grTlK2eAXWDE2k6D-1" value="Recursive Feature Elimination" style="rounded=1;whiteSpace=wrap;html=1;fontSize=15;glass=0;strokeWidth=2;shadow=0;fontStyle=0;fontFamily=Times New Roman;fillColor=#d5e8d4;" parent="WIyWlLk6GJQsqaUBKTNV-1" vertex="1">
          <mxGeometry x="159" y="630" width="142" height="40" as="geometry" />
        </mxCell>
        <mxCell id="oXN0grTlK2eAXWDE2k6D-13" value="&lt;span style=&quot;font-size: 15px&quot;&gt;Ridge Classifier&lt;/span&gt;" style="rounded=1;whiteSpace=wrap;html=1;fontSize=15;glass=0;strokeWidth=2;shadow=0;fontStyle=0;fontFamily=Times New Roman;fillColor=#e1d5e7;" parent="WIyWlLk6GJQsqaUBKTNV-1" vertex="1">
          <mxGeometry x="143" y="710" width="170" height="40" as="geometry" />
        </mxCell>
        <mxCell id="oXN0grTlK2eAXWDE2k6D-22" value="Shapiroâ€“Wilk Test" style="rounded=1;whiteSpace=wrap;html=1;fontSize=15;glass=0;strokeWidth=2;shadow=0;fontStyle=0;fontFamily=Times New Roman;fillColor=#f5f5f5;fontColor=#1C1C1C;" parent="WIyWlLk6GJQsqaUBKTNV-1" vertex="1">
          <mxGeometry x="750" y="33" width="160" height="40" as="geometry" />
        </mxCell>
        <mxCell id="oXN0grTlK2eAXWDE2k6D-25" value="&lt;font style=&quot;font-size: 13px&quot;&gt;Normally Distributed?&lt;/font&gt;" style="rhombus;whiteSpace=wrap;html=1;shadow=0;fontFamily=Times New Roman;fontSize=15;align=center;strokeWidth=2;spacing=6;spacingTop=-4;fontStyle=0;fillColor=#f8cecc;" parent="WIyWlLk6GJQsqaUBKTNV-1" vertex="1">
          <mxGeometry x="780" y="103" width="100" height="80" as="geometry" />
        </mxCell>
        <mxCell id="oXN0grTlK2eAXWDE2k6D-21" style="edgeStyle=orthogonalEdgeStyle;rounded=0;orthogonalLoop=1;jettySize=auto;html=1;exitX=0.5;exitY=1;exitDx=0;exitDy=0;entryX=0.5;entryY=0;entryDx=0;entryDy=0;fontFamily=Times New Roman;fontSize=15;fontColor=#000000;endArrow=block;endFill=1;strokeWidth=2;" parent="WIyWlLk6GJQsqaUBKTNV-1" source="oXN0grTlK2eAXWDE2k6D-22" target="oXN0grTlK2eAXWDE2k6D-25" edge="1">
          <mxGeometry x="-40" y="-100" as="geometry" />
        </mxCell>
        <mxCell id="oXN0grTlK2eAXWDE2k6D-27" value="&lt;span style=&quot;font-size: 15px;&quot;&gt;Levene&#39;s Test&lt;/span&gt;" style="rounded=1;whiteSpace=wrap;html=1;fontSize=15;glass=0;strokeWidth=2;shadow=0;fontStyle=0;fontFamily=Times New Roman;fillColor=#fff2cc;" parent="WIyWlLk6GJQsqaUBKTNV-1" vertex="1">
          <mxGeometry x="930" y="123" width="120" height="40" as="geometry" />
        </mxCell>
        <mxCell id="oXN0grTlK2eAXWDE2k6D-24" style="edgeStyle=orthogonalEdgeStyle;rounded=0;orthogonalLoop=1;jettySize=auto;html=1;exitX=1;exitY=0.5;exitDx=0;exitDy=0;entryX=0;entryY=0.5;entryDx=0;entryDy=0;fontFamily=Times New Roman;fontSize=15;fontColor=#000000;endArrow=block;endFill=1;strokeWidth=2;" parent="WIyWlLk6GJQsqaUBKTNV-1" source="oXN0grTlK2eAXWDE2k6D-25" target="oXN0grTlK2eAXWDE2k6D-27" edge="1">
          <mxGeometry x="-40" y="-100" as="geometry" />
        </mxCell>
        <mxCell id="oXN0grTlK2eAXWDE2k6D-31" value="&lt;span style=&quot;font-size: 15px;&quot;&gt;Bartlett&#39;s Test&lt;/span&gt;" style="rounded=1;whiteSpace=wrap;html=1;fontSize=15;glass=0;strokeWidth=2;shadow=0;fontStyle=0;fontFamily=Times New Roman;fillColor=#fff2cc;" parent="WIyWlLk6GJQsqaUBKTNV-1" vertex="1">
          <mxGeometry x="610" y="123" width="120" height="40" as="geometry" />
        </mxCell>
        <mxCell id="oXN0grTlK2eAXWDE2k6D-23" style="edgeStyle=orthogonalEdgeStyle;rounded=0;orthogonalLoop=1;jettySize=auto;html=1;exitX=0;exitY=0.5;exitDx=0;exitDy=0;entryX=1;entryY=0.5;entryDx=0;entryDy=0;fontFamily=Times New Roman;fontSize=15;fontColor=#000000;endArrow=block;endFill=1;strokeWidth=2;" parent="WIyWlLk6GJQsqaUBKTNV-1" source="oXN0grTlK2eAXWDE2k6D-25" target="oXN0grTlK2eAXWDE2k6D-31" edge="1">
          <mxGeometry x="-40" y="-100" as="geometry" />
        </mxCell>
        <mxCell id="oXN0grTlK2eAXWDE2k6D-34" value="Equal Variances?" style="rhombus;whiteSpace=wrap;html=1;shadow=0;fontFamily=Times New Roman;fontSize=15;align=center;strokeWidth=2;spacing=6;spacingTop=-4;fontStyle=0;fillColor=#f8cecc;" parent="WIyWlLk6GJQsqaUBKTNV-1" vertex="1">
          <mxGeometry x="780" y="269" width="100" height="80" as="geometry" />
        </mxCell>
        <mxCell id="oXN0grTlK2eAXWDE2k6D-36" value="&lt;span style=&quot;font-size: 15px;&quot;&gt;Kruskal Wallis Test&lt;/span&gt;" style="rounded=1;whiteSpace=wrap;html=1;fontSize=15;glass=0;strokeWidth=2;shadow=0;fontStyle=0;fontFamily=Times New Roman;fillColor=#dae8fc;" parent="WIyWlLk6GJQsqaUBKTNV-1" vertex="1">
          <mxGeometry x="920" y="289" width="140" height="40" as="geometry" />
        </mxCell>
        <mxCell id="oXN0grTlK2eAXWDE2k6D-33" style="edgeStyle=orthogonalEdgeStyle;rounded=0;orthogonalLoop=1;jettySize=auto;html=1;exitX=1;exitY=0.5;exitDx=0;exitDy=0;entryX=0;entryY=0.5;entryDx=0;entryDy=0;fontFamily=Times New Roman;fontSize=15;fontColor=#000000;endArrow=block;endFill=1;strokeWidth=2;" parent="WIyWlLk6GJQsqaUBKTNV-1" source="oXN0grTlK2eAXWDE2k6D-34" target="oXN0grTlK2eAXWDE2k6D-36" edge="1">
          <mxGeometry x="-40" y="-100" as="geometry" />
        </mxCell>
        <mxCell id="oXN0grTlK2eAXWDE2k6D-38" value="&lt;span style=&quot;font-size: 15px;&quot;&gt;Student&#39;s t-Test&lt;/span&gt;" style="rounded=1;whiteSpace=wrap;html=1;fontSize=15;glass=0;strokeWidth=2;shadow=0;fontStyle=0;fontFamily=Times New Roman;fillColor=#dae8fc;" parent="WIyWlLk6GJQsqaUBKTNV-1" vertex="1">
          <mxGeometry x="610" y="289" width="120" height="40" as="geometry" />
        </mxCell>
        <mxCell id="oXN0grTlK2eAXWDE2k6D-32" style="edgeStyle=orthogonalEdgeStyle;rounded=0;orthogonalLoop=1;jettySize=auto;html=1;exitX=0;exitY=0.5;exitDx=0;exitDy=0;entryX=1;entryY=0.5;entryDx=0;entryDy=0;fontFamily=Times New Roman;fontSize=15;fontColor=#000000;endArrow=block;endFill=1;strokeWidth=2;" parent="WIyWlLk6GJQsqaUBKTNV-1" source="oXN0grTlK2eAXWDE2k6D-34" target="oXN0grTlK2eAXWDE2k6D-38" edge="1">
          <mxGeometry x="-40" y="-100" as="geometry" />
        </mxCell>
        <mxCell id="oXN0grTlK2eAXWDE2k6D-39" style="edgeStyle=orthogonalEdgeStyle;rounded=0;orthogonalLoop=1;jettySize=auto;html=1;exitX=0.5;exitY=1;exitDx=0;exitDy=0;entryX=0.5;entryY=0;entryDx=0;entryDy=0;fontFamily=Times New Roman;fontSize=15;fontColor=#000000;endArrow=block;endFill=1;strokeWidth=2;" parent="WIyWlLk6GJQsqaUBKTNV-1" source="oXN0grTlK2eAXWDE2k6D-40" target="oXN0grTlK2eAXWDE2k6D-34" edge="1">
          <mxGeometry x="-40" y="-100" as="geometry" />
        </mxCell>
        <mxCell id="oXN0grTlK2eAXWDE2k6D-40" value="" style="ellipse;whiteSpace=wrap;html=1;aspect=fixed;fontStyle=0;fontFamily=Times New Roman;fontSize=15;strokeWidth=2;" parent="WIyWlLk6GJQsqaUBKTNV-1" vertex="1">
          <mxGeometry x="810" y="204" width="40" height="40" as="geometry" />
        </mxCell>
        <mxCell id="oXN0grTlK2eAXWDE2k6D-26" style="edgeStyle=orthogonalEdgeStyle;rounded=0;orthogonalLoop=1;jettySize=auto;html=1;exitX=0.5;exitY=1;exitDx=0;exitDy=0;entryX=1;entryY=0.5;entryDx=0;entryDy=0;fontFamily=Times New Roman;fontSize=15;fontColor=#000000;endArrow=block;endFill=1;strokeWidth=2;" parent="WIyWlLk6GJQsqaUBKTNV-1" source="oXN0grTlK2eAXWDE2k6D-27" target="oXN0grTlK2eAXWDE2k6D-40" edge="1">
          <mxGeometry x="-40" y="-100" as="geometry" />
        </mxCell>
        <mxCell id="oXN0grTlK2eAXWDE2k6D-30" style="edgeStyle=orthogonalEdgeStyle;rounded=0;orthogonalLoop=1;jettySize=auto;html=1;exitX=0.5;exitY=1;exitDx=0;exitDy=0;entryX=0;entryY=0.5;entryDx=0;entryDy=0;fontFamily=Times New Roman;fontSize=15;fontColor=#000000;endArrow=block;endFill=1;strokeWidth=2;" parent="WIyWlLk6GJQsqaUBKTNV-1" source="oXN0grTlK2eAXWDE2k6D-31" target="oXN0grTlK2eAXWDE2k6D-40" edge="1">
          <mxGeometry x="-40" y="-100" as="geometry" />
        </mxCell>
        <mxCell id="oXN0grTlK2eAXWDE2k6D-42" value="" style="ellipse;whiteSpace=wrap;html=1;aspect=fixed;fontStyle=0;fontFamily=Times New Roman;fontSize=15;strokeWidth=2;" parent="WIyWlLk6GJQsqaUBKTNV-1" vertex="1">
          <mxGeometry x="810" y="360" width="40" height="40" as="geometry" />
        </mxCell>
        <mxCell id="oXN0grTlK2eAXWDE2k6D-35" style="edgeStyle=orthogonalEdgeStyle;rounded=0;orthogonalLoop=1;jettySize=auto;html=1;exitX=0.5;exitY=1;exitDx=0;exitDy=0;entryX=1;entryY=0.5;entryDx=0;entryDy=0;fontFamily=Times New Roman;fontSize=15;fontColor=#000000;endArrow=block;endFill=1;strokeWidth=2;" parent="WIyWlLk6GJQsqaUBKTNV-1" source="oXN0grTlK2eAXWDE2k6D-36" target="oXN0grTlK2eAXWDE2k6D-42" edge="1">
          <mxGeometry x="-40" y="-100" as="geometry" />
        </mxCell>
        <mxCell id="oXN0grTlK2eAXWDE2k6D-37" style="edgeStyle=orthogonalEdgeStyle;rounded=0;orthogonalLoop=1;jettySize=auto;html=1;exitX=0.5;exitY=1;exitDx=0;exitDy=0;entryX=0;entryY=0.5;entryDx=0;entryDy=0;fontFamily=Times New Roman;fontSize=15;fontColor=#000000;endArrow=block;endFill=1;strokeWidth=2;" parent="WIyWlLk6GJQsqaUBKTNV-1" source="oXN0grTlK2eAXWDE2k6D-38" target="oXN0grTlK2eAXWDE2k6D-42" edge="1">
          <mxGeometry x="-40" y="-100" as="geometry" />
        </mxCell>
        <mxCell id="oXN0grTlK2eAXWDE2k6D-44" style="edgeStyle=orthogonalEdgeStyle;rounded=0;orthogonalLoop=1;jettySize=auto;html=1;exitX=0.5;exitY=1;exitDx=0;exitDy=0;entryX=0.5;entryY=0;entryDx=0;entryDy=0;fontFamily=Times New Roman;fontSize=15;fontColor=#000000;endArrow=block;endFill=1;strokeWidth=2;" parent="WIyWlLk6GJQsqaUBKTNV-1" target="oXN0grTlK2eAXWDE2k6D-54" edge="1">
          <mxGeometry x="-40" y="-100" as="geometry">
            <mxPoint x="830" y="508" as="sourcePoint" />
          </mxGeometry>
        </mxCell>
        <mxCell id="oXN0grTlK2eAXWDE2k6D-45" value="" style="rhombus;whiteSpace=wrap;html=1;shadow=0;fontFamily=Times New Roman;fontSize=15;align=center;strokeWidth=2;spacing=6;spacingTop=-4;fontStyle=0;fillColor=#f8cecc;" parent="WIyWlLk6GJQsqaUBKTNV-1" vertex="1">
          <mxGeometry x="780" y="435" width="100" height="80" as="geometry" />
        </mxCell>
        <mxCell id="oXN0grTlK2eAXWDE2k6D-41" style="edgeStyle=orthogonalEdgeStyle;rounded=0;orthogonalLoop=1;jettySize=auto;html=1;exitX=0.5;exitY=1;exitDx=0;exitDy=0;entryX=0.5;entryY=0;entryDx=0;entryDy=0;fontFamily=Times New Roman;fontSize=15;fontColor=#000000;endArrow=block;endFill=1;strokeWidth=2;" parent="WIyWlLk6GJQsqaUBKTNV-1" source="oXN0grTlK2eAXWDE2k6D-42" target="oXN0grTlK2eAXWDE2k6D-45" edge="1">
          <mxGeometry x="-40" y="-100" as="geometry" />
        </mxCell>
        <mxCell id="oXN0grTlK2eAXWDE2k6D-46" value="Less Important Metabolites" style="rounded=1;whiteSpace=wrap;html=1;fontSize=15;glass=0;strokeWidth=2;shadow=0;fontStyle=0;fontFamily=Times New Roman;" parent="WIyWlLk6GJQsqaUBKTNV-1" vertex="1">
          <mxGeometry x="930" y="451" width="130" height="48" as="geometry" />
        </mxCell>
        <mxCell id="oXN0grTlK2eAXWDE2k6D-43" style="edgeStyle=orthogonalEdgeStyle;rounded=0;orthogonalLoop=1;jettySize=auto;html=1;exitX=1;exitY=0.5;exitDx=0;exitDy=0;entryX=0;entryY=0.5;entryDx=0;entryDy=0;fontFamily=Times New Roman;fontSize=15;fontColor=#000000;endArrow=block;endFill=1;strokeWidth=2;" parent="WIyWlLk6GJQsqaUBKTNV-1" source="oXN0grTlK2eAXWDE2k6D-45" target="oXN0grTlK2eAXWDE2k6D-46" edge="1">
          <mxGeometry x="-40" y="-100" as="geometry" />
        </mxCell>
        <mxCell id="oXN0grTlK2eAXWDE2k6D-47" value="Yes" style="text;html=1;strokeColor=none;fillColor=none;align=center;verticalAlign=middle;whiteSpace=wrap;rounded=0;fontFamily=Times New Roman;fontSize=15;fontColor=#000000;strokeWidth=2;" parent="WIyWlLk6GJQsqaUBKTNV-1" vertex="1">
          <mxGeometry x="741" y="119" width="40" height="20" as="geometry" />
        </mxCell>
        <mxCell id="oXN0grTlK2eAXWDE2k6D-48" value="No" style="text;html=1;strokeColor=none;fillColor=none;align=center;verticalAlign=middle;whiteSpace=wrap;rounded=0;fontFamily=Times New Roman;fontSize=15;fontColor=#000000;strokeWidth=2;" parent="WIyWlLk6GJQsqaUBKTNV-1" vertex="1">
          <mxGeometry x="880" y="119" width="40" height="20" as="geometry" />
        </mxCell>
        <mxCell id="oXN0grTlK2eAXWDE2k6D-49" value="Yes" style="text;html=1;strokeColor=none;fillColor=none;align=center;verticalAlign=middle;whiteSpace=wrap;rounded=0;fontFamily=Times New Roman;fontSize=15;fontColor=#000000;strokeWidth=2;" parent="WIyWlLk6GJQsqaUBKTNV-1" vertex="1">
          <mxGeometry x="739" y="285" width="40" height="20" as="geometry" />
        </mxCell>
        <mxCell id="oXN0grTlK2eAXWDE2k6D-50" value="No" style="text;html=1;strokeColor=none;fillColor=none;align=center;verticalAlign=middle;whiteSpace=wrap;rounded=0;fontFamily=Times New Roman;fontSize=15;fontColor=#000000;strokeWidth=2;" parent="WIyWlLk6GJQsqaUBKTNV-1" vertex="1">
          <mxGeometry x="873" y="285" width="40" height="20" as="geometry" />
        </mxCell>
        <mxCell id="oXN0grTlK2eAXWDE2k6D-51" value="No" style="text;html=1;strokeColor=none;fillColor=none;align=center;verticalAlign=middle;whiteSpace=wrap;rounded=0;fontFamily=Times New Roman;fontSize=15;fontColor=#000000;strokeWidth=2;" parent="WIyWlLk6GJQsqaUBKTNV-1" vertex="1">
          <mxGeometry x="879" y="452" width="40" height="20" as="geometry" />
        </mxCell>
        <mxCell id="oXN0grTlK2eAXWDE2k6D-54" value="Important Metabolites" style="rounded=1;whiteSpace=wrap;html=1;fontSize=15;glass=0;strokeWidth=2;shadow=0;fontStyle=0;fontFamily=Times New Roman;" parent="WIyWlLk6GJQsqaUBKTNV-1" vertex="1">
          <mxGeometry x="765" y="544.5" width="130" height="46" as="geometry" />
        </mxCell>
        <mxCell id="oXN0grTlK2eAXWDE2k6D-55" value="Yes" style="text;html=1;strokeColor=none;fillColor=none;align=center;verticalAlign=middle;whiteSpace=wrap;rounded=0;fontFamily=Times New Roman;fontSize=15;fontColor=#000000;strokeWidth=2;" parent="WIyWlLk6GJQsqaUBKTNV-1" vertex="1">
          <mxGeometry x="831" y="514" width="40" height="20" as="geometry" />
        </mxCell>
        <mxCell id="oXN0grTlK2eAXWDE2k6D-56" value="&lt;font face=&quot;Times New Roman&quot;&gt;&lt;span style=&quot;font-size: 15px&quot;&gt;p-value &amp;lt; 0.015?&lt;/span&gt;&lt;/font&gt;" style="text;html=1;strokeColor=none;fillColor=none;align=center;verticalAlign=middle;whiteSpace=wrap;rounded=0;" parent="WIyWlLk6GJQsqaUBKTNV-1" vertex="1">
          <mxGeometry x="795" y="456" width="70" height="40" as="geometry" />
        </mxCell>
        <mxCell id="oXN0grTlK2eAXWDE2k6D-61" value="&lt;span style=&quot;font-size: 15px&quot;&gt;XGBoost Classifier&lt;/span&gt;" style="rounded=1;whiteSpace=wrap;html=1;fontSize=15;glass=0;strokeWidth=2;shadow=0;fontStyle=0;fontFamily=Times New Roman;fillColor=#e1d5e7;" parent="WIyWlLk6GJQsqaUBKTNV-1" vertex="1">
          <mxGeometry x="877" y="800" width="170" height="40" as="geometry" />
        </mxCell>
        <mxCell id="xgjm8-QiR800L5wqgHzL-3" style="edgeStyle=orthogonalEdgeStyle;rounded=0;orthogonalLoop=1;jettySize=auto;html=1;fontFamily=Times New Roman;fontSize=15;fontColor=#000000;endArrow=block;endFill=1;strokeWidth=2;" edge="1" parent="WIyWlLk6GJQsqaUBKTNV-1">
          <mxGeometry x="-640.53" y="-80" as="geometry">
            <mxPoint x="229.2900000000002" y="700.0600000000004" as="sourcePoint" />
            <mxPoint x="229" y="710" as="targetPoint" />
            <Array as="points">
              <mxPoint x="229.28999999999996" y="670.06" />
              <mxPoint x="229.28999999999996" y="670.06" />
            </Array>
          </mxGeometry>
        </mxCell>
        <mxCell id="xgjm8-QiR800L5wqgHzL-5" value="" style="edgeStyle=orthogonalEdgeStyle;rounded=0;orthogonalLoop=1;jettySize=auto;html=1;strokeWidth=2;exitX=0.5;exitY=1;exitDx=0;exitDy=0;" edge="1" parent="WIyWlLk6GJQsqaUBKTNV-1" target="xgjm8-QiR800L5wqgHzL-6">
          <mxGeometry x="560" y="-100" as="geometry">
            <mxPoint x="830" y="590.5000000000005" as="sourcePoint" />
          </mxGeometry>
        </mxCell>
        <mxCell id="xgjm8-QiR800L5wqgHzL-6" value="Recursive Feature Elimination" style="rounded=1;whiteSpace=wrap;html=1;fontSize=15;glass=0;strokeWidth=2;shadow=0;fontStyle=0;fontFamily=Times New Roman;fillColor=#d5e8d4;" vertex="1" parent="WIyWlLk6GJQsqaUBKTNV-1">
          <mxGeometry x="759" y="630" width="142" height="40" as="geometry" />
        </mxCell>
        <mxCell id="xgjm8-QiR800L5wqgHzL-11" value="" style="rounded=0;whiteSpace=wrap;html=1;fontFamily=Times New Roman;fontSize=15;fontColor=#000000;strokeColor=#000000;strokeWidth=2;fillColor=none;" vertex="1" parent="WIyWlLk6GJQsqaUBKTNV-1">
          <mxGeometry x="550" y="-60" width="580" height="920" as="geometry" />
        </mxCell>
        <mxCell id="xgjm8-QiR800L5wqgHzL-12" value="&lt;span style=&quot;font-size: 15px&quot;&gt;&lt;font style=&quot;font-size: 15px&quot;&gt;Serum Sample&lt;/font&gt;&lt;/span&gt;" style="rounded=1;whiteSpace=wrap;html=1;fontSize=15;glass=0;strokeWidth=2;shadow=0;fontStyle=0;fontFamily=Times New Roman;" vertex="1" parent="WIyWlLk6GJQsqaUBKTNV-1">
          <mxGeometry x="901" y="720" width="120" height="40" as="geometry" />
        </mxCell>
        <mxCell id="xgjm8-QiR800L5wqgHzL-13" value="&lt;span style=&quot;font-size: 15px&quot;&gt;&lt;font style=&quot;font-size: 15px&quot;&gt;Plasma Sample&lt;/font&gt;&lt;/span&gt;" style="rounded=1;whiteSpace=wrap;html=1;fontSize=15;glass=0;strokeWidth=2;shadow=0;fontStyle=0;fontFamily=Times New Roman;" vertex="1" parent="WIyWlLk6GJQsqaUBKTNV-1">
          <mxGeometry x="170" y="-33" width="120" height="40" as="geometry" />
        </mxCell>
        <mxCell id="xgjm8-QiR800L5wqgHzL-14" value="&lt;span style=&quot;font-size: 15px&quot;&gt;&lt;font style=&quot;font-size: 15px&quot;&gt;Plasma Sample&lt;/font&gt;&lt;/span&gt;" style="rounded=1;whiteSpace=wrap;html=1;fontSize=15;glass=0;strokeWidth=2;shadow=0;fontStyle=0;fontFamily=Times New Roman;" vertex="1" parent="WIyWlLk6GJQsqaUBKTNV-1">
          <mxGeometry x="659" y="720" width="120" height="40" as="geometry" />
        </mxCell>
        <mxCell id="xgjm8-QiR800L5wqgHzL-16" value="&lt;span style=&quot;font-size: 15px&quot;&gt;Ridge Classifier&lt;/span&gt;" style="rounded=1;whiteSpace=wrap;html=1;fontSize=15;glass=0;strokeWidth=2;shadow=0;fontStyle=0;fontFamily=Times New Roman;fillColor=#e1d5e7;" vertex="1" parent="WIyWlLk6GJQsqaUBKTNV-1">
          <mxGeometry x="636" y="800" width="170" height="40" as="geometry" />
        </mxCell>
        <mxCell id="xgjm8-QiR800L5wqgHzL-18" style="edgeStyle=orthogonalEdgeStyle;rounded=0;orthogonalLoop=1;jettySize=auto;html=1;fontFamily=Times New Roman;fontSize=15;fontColor=#000000;endArrow=block;endFill=1;strokeWidth=2;" edge="1" parent="WIyWlLk6GJQsqaUBKTNV-1">
          <mxGeometry x="-149.35999999999996" y="10" as="geometry">
            <mxPoint x="720.4599999999999" y="790.0600000000004" as="sourcePoint" />
            <mxPoint x="720.17" y="800" as="targetPoint" />
            <Array as="points">
              <mxPoint x="720.4599999999999" y="760.06" />
              <mxPoint x="720.4599999999999" y="760.06" />
            </Array>
          </mxGeometry>
        </mxCell>
        <mxCell id="xgjm8-QiR800L5wqgHzL-19" style="edgeStyle=orthogonalEdgeStyle;rounded=0;orthogonalLoop=1;jettySize=auto;html=1;fontFamily=Times New Roman;fontSize=15;fontColor=#000000;endArrow=block;endFill=1;strokeWidth=2;" edge="1" parent="WIyWlLk6GJQsqaUBKTNV-1">
          <mxGeometry x="90.64000000000003" y="10" as="geometry">
            <mxPoint x="960.4599999999999" y="790.0600000000004" as="sourcePoint" />
            <mxPoint x="960.17" y="800" as="targetPoint" />
            <Array as="points">
              <mxPoint x="960.4599999999999" y="760.06" />
              <mxPoint x="960.4599999999999" y="760.06" />
            </Array>
          </mxGeometry>
        </mxCell>
        <mxCell id="xgjm8-QiR800L5wqgHzL-20" value="" style="endArrow=classic;html=1;exitX=0;exitY=0.5;exitDx=0;exitDy=0;entryX=0.5;entryY=0;entryDx=0;entryDy=0;fontSize=13;strokeWidth=2;" edge="1" parent="WIyWlLk6GJQsqaUBKTNV-1" source="xgjm8-QiR800L5wqgHzL-6" target="xgjm8-QiR800L5wqgHzL-14">
          <mxGeometry width="50" height="50" relative="1" as="geometry">
            <mxPoint x="620" y="690" as="sourcePoint" />
            <mxPoint x="670" y="640" as="targetPoint" />
            <Array as="points">
              <mxPoint x="719" y="650" />
            </Array>
          </mxGeometry>
        </mxCell>
        <mxCell id="xgjm8-QiR800L5wqgHzL-21" value="" style="endArrow=classic;html=1;fontSize=13;strokeWidth=2;exitX=1;exitY=0.5;exitDx=0;exitDy=0;entryX=0.5;entryY=0;entryDx=0;entryDy=0;" edge="1" parent="WIyWlLk6GJQsqaUBKTNV-1" source="xgjm8-QiR800L5wqgHzL-6" target="xgjm8-QiR800L5wqgHzL-12">
          <mxGeometry width="50" height="50" relative="1" as="geometry">
            <mxPoint x="620" y="690" as="sourcePoint" />
            <mxPoint x="670" y="640" as="targetPoint" />
            <Array as="points">
              <mxPoint x="961" y="650" />
            </Array>
          </mxGeometry>
        </mxCell>
        <mxCell id="xgjm8-QiR800L5wqgHzL-22" value="&lt;span style=&quot;font-size: 15px&quot;&gt;&lt;font style=&quot;font-size: 15px&quot;&gt;Serum Sample&lt;/font&gt;&lt;/span&gt;" style="rounded=1;whiteSpace=wrap;html=1;fontSize=15;glass=0;strokeWidth=2;shadow=0;fontStyle=0;fontFamily=Times New Roman;" vertex="1" parent="WIyWlLk6GJQsqaUBKTNV-1">
          <mxGeometry x="891" y="-40" width="120" height="40" as="geometry" />
        </mxCell>
        <mxCell id="xgjm8-QiR800L5wqgHzL-23" value="&lt;span style=&quot;font-size: 15px&quot;&gt;&lt;font style=&quot;font-size: 15px&quot;&gt;Plasma Sample&lt;/font&gt;&lt;/span&gt;" style="rounded=1;whiteSpace=wrap;html=1;fontSize=15;glass=0;strokeWidth=2;shadow=0;fontStyle=0;fontFamily=Times New Roman;" vertex="1" parent="WIyWlLk6GJQsqaUBKTNV-1">
          <mxGeometry x="649" y="-40" width="120" height="40" as="geometry" />
        </mxCell>
        <mxCell id="xgjm8-QiR800L5wqgHzL-24" value="" style="endArrow=classic;html=1;fontSize=13;strokeWidth=2;exitX=0.5;exitY=1;exitDx=0;exitDy=0;entryX=1;entryY=0.5;entryDx=0;entryDy=0;" edge="1" parent="WIyWlLk6GJQsqaUBKTNV-1" source="xgjm8-QiR800L5wqgHzL-22" target="oXN0grTlK2eAXWDE2k6D-22">
          <mxGeometry width="50" height="50" relative="1" as="geometry">
            <mxPoint x="620" y="290" as="sourcePoint" />
            <mxPoint x="670" y="240" as="targetPoint" />
            <Array as="points">
              <mxPoint x="951" y="53" />
            </Array>
          </mxGeometry>
        </mxCell>
        <mxCell id="xgjm8-QiR800L5wqgHzL-25" value="" style="endArrow=classic;html=1;fontSize=13;strokeWidth=2;exitX=0.5;exitY=1;exitDx=0;exitDy=0;entryX=0;entryY=0.5;entryDx=0;entryDy=0;" edge="1" parent="WIyWlLk6GJQsqaUBKTNV-1" source="xgjm8-QiR800L5wqgHzL-23" target="oXN0grTlK2eAXWDE2k6D-22">
          <mxGeometry width="50" height="50" relative="1" as="geometry">
            <mxPoint x="620" y="290" as="sourcePoint" />
            <mxPoint x="670" y="240" as="targetPoint" />
            <Array as="points">
              <mxPoint x="709" y="53" />
            </Array>
          </mxGeometry>
        </mxCell>
      </root>
    </mxGraphModel>
  </diagram>
</mxfile>
